PathFileType	3	(X/Y/Z)	D:\minhoCalibration\240510\subject2_KPNP\preferred\preferred18.trc
DataRate	CameraRate	NumFrames	NumMarkers	Units	OrigDataRate	OrigDataStartFrame	OrigNumFrames
200.0	200.0	27	10	mm	200.0	303	174	
Frame#	Time	Left_Ankle_Outer1			Left_Ankle_Inner1			Left_Knee_Outer1			Left_Knee_Inner1			Left_Wrist1			Right_Wrist1			Right_Knee_Inner1			Right_Knee_Outer1			Right_Ankle_Inner1			Right_Ankle_Outer1			
		X1	Y1	Z1	X2	Y2	Z2	X3	Y3	Z3	X4	Y4	Z4	X5	Y5	Z5	X6	Y6	Z6	X7	Y7	Z7	X8	Y8	Z8	X9	Y9	Z9	X10	Y10	Z10	
303	1.505	-631.17523	129.98482	-696.66992	-636.5965	137.94965	-644.08868	-421.61243	524.64331	-755.67017	-432.12555	512.76477	-661.13214	-546.7334	972.03564	-863.14227	-625.23267	1138.9509	-562.12079	-515.76385	846.33636	-169.00391	-543.30524	945.9729	-159.29875	-896.44489	787.80304	-356.12073	-923.28564	880.00177	-322.71143
304	1.51	-630.80096	131.10281	-695.42383	-635.11694	139.44614	-642.33533	-423.32108	525.47937	-758.41235	-429.71967	513.78058	-664.06604	-555.08057	969.86975	-863.59009	-620.27216	1142.2535	-562.14252	-492.77032	859.25653	-169.55301	-515.81464	959.34174	-161.89626	-889.23364	801.51367	-322.45486	-912.35669	895.69678	-292.2225
305	1.515	-630.70618	131.78624	-694.84381	-634.35938	140.82066	-639.89093	-425.57944	526.39606	-760.69843	-428.74399	514.83899	-666.44647	-563.40491	967.47125	-863.34607	-614.84924	1145.5885	-562.04688	-470.36438	871.65985	-171.8912	-489.7117	971.69666	-166.25471	-881.44849	815.99982	-282.07007	-899.84619	911.88916	-254.46185
306	1.52	-630.75476	132.13335	-694.76398	-634.12219	139.88544	-642.47943	-428.31467	527.18085	-762.54114	-428.81537	516.00177	-668.23883	-571.46515	964.95221	-862.6076	-609.90979	1148.7577	-562.35931	-449.64349	883.41943	-174.81508	-465.18204	982.95709	-172.37573	-870.85449	830.34906	-239.2236	-885.05487	927.823	-215.55348
307	1.525	-630.92651	132.11215	-695.18616	-633.59784	141.23848	-640.2525	-431.23203	527.97742	-763.90918	-429.96942	516.89899	-669.2381	-579.19604	962.37177	-861.18323	-605.39294	1151.7769	-563.03638	-429.95621	894.59637	-179.28036	-442.73145	993.21265	-179.64807	-856.53107	845.39825	-195.40594	-867.08582	943.99908	-175.30878
308	1.53	-631.19678	131.71509	-695.90247	-633.17511	141.80644	-639.80231	-434.70212	528.27759	-764.70898	-432.02051	517.65771	-669.63409	-586.37451	959.78156	-859.35138	-600.9104	1154.6152	-563.5528	-411.78348	904.85333	-184.17284	-422.52881	1002.4767	-187.9527	-838.24646	860.06018	-150.29707	-846.3219	959.56427	-134.42143
309	1.535	-631.6214	131.03941	-696.71429	-634.69781	138.95355	-644.24371	-437.28036	529.54822	-765.4859	-434.87698	518.16193	-669.39722	-593.13995	957.14417	-856.98273	-597.49402	1157.1071	-564.38422	-395.27026	914.2937	-189.7807	-404.69531	1010.748	-196.83965	-815.76691	874.97144	-105.14799	-822.35168	975.08698	-93.282539
310	1.54	-632.25696	130.25311	-697.60077	-634.78766	138.39789	-644.79565	-440.62585	530.26276	-765.26172	-438.42157	518.47034	-668.67047	-599.09741	954.74731	-854.23206	-594.11304	1159.4119	-565.28418	-380.97034	923.2049	-195.73146	-389.54968	1017.9164	-205.89348	-789.87781	889.49243	-61.240479	-794.23993	990.89142	-51.160431
311	1.545	-632.98517	129.26913	-698.03766	-635.26715	139.35118	-641.40594	-443.42468	531.08923	-765.06152	-442.3024	518.6239	-667.58636	-604.32153	952.55298	-851.23633	-591.19666	1161.5487	-566.21503	-368.76712	931.32996	-201.61021	-377.28299	1024.483	-214.42215	-760.04895	902.59686	-18.911539	-762.56268	1005.1819	-10.368615
312	1.55	-633.95221	128.22781	-697.9798	-636.77423	138.11784	-640.97443	-446.09503	531.71478	-764.4646	-446.48743	518.54858	-666.2627	-608.8573	950.70978	-848.07019	-588.7218	1163.5197	-567.1637	-358.91406	938.58795	-207.37	-367.61285	1030.241	-222.17648	-726.33002	916.2359	22.016003	-726.34851	1019.9441	29.117727
313	1.555	-635.12494	127.10115	-696.93915	-637.20752	136.87971	-641.70215	-448.46381	532.12543	-763.66748	-450.79971	518.38397	-664.78601	-612.56866	949.50812	-845.19513	-586.72455	1165.4946	-568.03693	-351.48749	945.15564	-212.56718	-360.6828	1035.3492	-228.86836	-688.84052	929.62183	61.372253	-686.43378	1034.4333	67.181175
314	1.56	-636.6095	126.25855	-695.534	-638.22375	135.34196	-641.70282	-450.44528	532.42505	-762.91479	-455.01102	518.15155	-663.33716	-615.52728	948.72083	-842.9165	-585.0495	1167.5328	-568.82068	-346.83521	951.21326	-217.0489	-356.27875	1039.8524	-234.37579	-645.7146	944.06451	100.2282	-642.05096	1048.057	102.61375
315	1.565	-638.19269	125.72454	-693.58746	-639.44183	135.85864	-636.76575	-452.26932	532.41626	-762.24481	-458.88275	517.99805	-662.04376	-617.74036	948.41351	-841.3819	-583.53882	1169.4958	-569.66321	-345.41223	956.94763	-220.72421	-354.46268	1044.0796	-238.18179	-599.66492	957.88416	134.60051	-594.05536	1060.8866	134.18764
316	1.57	-639.78424	125.34651	-691.1189	-640.04669	135.53419	-634.1048	-454.216	532.23346	-761.66663	-462.41013	517.78308	-660.91077	-619.43866	948.40857	-840.2431	-582.10791	1171.0952	-571.06586	-346.20929	962.26855	-223.31693	-355.15167	1047.923	-240.11757	-548.133	970.09338	162.63832	-543.34503	1072.6736	161.21501
317	1.575	-641.3681	125.07312	-688.33002	-641.73944	132.74638	-635.59851	-456.52396	532.02881	-761.25702	-465.28662	517.71539	-659.99756	-620.62695	948.61731	-839.06146	-581.32819	1172.7544	-571.27771	-349.79309	967.29004	-224.82364	-358.45215	1051.7484	-240.18706	-492.62106	979.46039	184.32733	-489.6561	1082.6401	182.20923
318	1.58	-642.88251	125.12251	-685.435	-641.06757	134.75757	-629.67438	-458.83752	531.93719	-761.22217	-467.65125	517.69678	-659.40814	-621.34351	949.10046	-837.6333	-580.73395	1174.1816	-571.05292	-356.60663	972.12543	-224.49474	-363.92902	1055.8353	-238.77904	-436.46863	988.11353	200.26836	-434.78549	1089.9017	196.00233
319	1.585	-644.31006	125.38735	-682.89093	-642.02112	133.60715	-628.58551	-462.20404	531.47375	-760.65289	-469.34668	517.73792	-659.13977	-621.60645	949.81671	-835.85834	-580.38269	1175.5095	-570.19836	-363.35706	977.07593	-221.98723	-371.25888	1061.1056	-236.35832	-378.58987	992.86157	205.99336	-380.63095	1094.6771	201.9935
320	1.59	-645.5213	125.7332	-680.32935	-642.00861	134.10585	-625.46747	-464.48267	531.78455	-761.54517	-470.42133	517.83356	-659.26959	-621.47449	950.76575	-833.63129	-580.09363	1176.6736	-568.71057	-369.12747	981.70496	-217.75391	-378.98328	1068.0101	-232.59108	-330.97372	999.50635	202.19522	-332.98254	1095.8541	198.89618
321	1.595	-646.43561	126.07637	-677.96686	-642.12122	134.3187	-623.13934	-467.7341	531.94098	-761.75427	-471.03455	517.91516	-659.64679	-620.93719	951.96753	-830.97192	-580.04309	1178.0529	-565.84454	-371.02628	984.83282	-213.86201	-383.48264	1075.5901	-228.11389	-311.78223	1000.5823	193.23846	-308.31152	1099.1821	187.13216
322	1.6	-647.04547	126.09282	-675.89429	-642.67017	133.62761	-622.79175	-471.13855	532.24152	-761.76953	-471.40622	517.84918	-660.11169	-620.26422	953.1759	-828.03717	-579.77515	1179.1066	-563.17792	-361.32321	988.80719	-214.91061	-375.3259	1080.457	-226.4772	-316.23395	1004.361	194.80542	-303.96005	1102.4489	184.45901
323	1.605	-647.50397	126.40895	-674.69183	-641.80066	135.28607	-619.27435	-474.61557	532.58173	-761.47748	-470.93396	517.8996	-660.67126	-619.67358	953.97815	-825.07965	-579.73938	1179.9359	-560.63904	-345.87732	992.17035	-220.16245	-361.73846	1083.1696	-228.11288	-326.26126	1007.217	196.9368	-310.34137	1105.902	188.73157
324	1.61	-647.61902	126.79744	-674.01947	-642.38361	134.05783	-621.02118	-477.99136	533.01428	-760.9527	-470.14166	517.9549	-661.06976	-619.57721	954.69861	-822.26819	-580.44482	1180.3746	-558.08905	-335.06256	993.51508	-224.89151	-350.37918	1081.2217	-231.23154	-332.9447	1005.1624	195.72707	-321.17554	1107.3314	191.15298
325	1.615	-647.32666	127.24847	-673.93781	-641.2774	136.88321	-617.27441	-481.02573	533.44031	-759.68298	-469.21756	518.19336	-661.07166	-619.86371	955.54346	-819.48566	-581.12842	1180.665	-555.02618	-331.80173	995.5108	-226.20351	-339.7923	1078.7952	-234.03082	-337.00104	1001.8553	194.38362	-329.95724	1103.8724	190.84497
326	1.62	-646.7923	127.85274	-674.2077	-641.50256	135.51227	-619.63043	-483.32187	534.08502	-758.07306	-468.47372	518.7251	-660.44458	-620.02856	956.41309	-816.90527	-581.66467	1180.2274	-552.34369	-334.35541	996.97406	-224.30766	-329.89532	1075.1628	-236.55536	-340.94809	998.88715	194.36925	-334.0278	1098.9871	191.99332
327	1.625	-646.38635	128.7187	-675.12488	-640.48792	137.48227	-617.49207	-484.74384	535.10419	-755.83411	-468.04565	519.65802	-659.1853	-620.21423	956.99084	-814.38202	-582.8374	1180.0785	-548.57178	-340.79202	997.17358	-218.90094	-328.58496	1072.4102	-236.82817	-343.71631	994.58826	196.6013	-334.21951	1095.6941	195.61336
328	1.63	-645.82397	129.27876	-675.74274	-640.19379	136.82759	-620.27057	-485.17545	536.60931	-753.21967	-467.95776	520.93579	-657.24213	-619.9527	956.97955	-811.72833	-584.08868	1179.7916	-545.62482	-347.25092	998.48987	-212.80881	-334.59964	1077.3817	-234.55595	-344.00888	992.17566	200.13794	-333.39868	1093.764	200.72238
329	1.635	-645.17029	129.89534	-676.36572	-639.90582	137.73471	-619.57422	-484.58441	538.44653	-750.48065	-468.30569	522.41101	-654.6098	-620.12219	957.03784	-809.66559	-585.39514	1179.866	-542.96112	-352.76947	1000.5585	-209.16814	-345.03503	1084.6879	-230.0475	-342.86551	988.93817	202.84311	-331.67542	1090.6018	205.00313
